<?xml version="1.0" ?><!DOCTYPE svg  PUBLIC '-//W3C//DTD SVG 1.1//EN'
    'http://www.w3.org/Graphics/SVG/1.1/DTD/svg11.dtd'>
<svg enable-background="new 0 0 512 512" height="512px" id="Layer_1" version="1.1"
    viewBox="0 0 512 512" width="512px" xml:space="preserve" xmlns="http://www.w3.org/2000/svg"><g><path d="M143.445,273.719l-37.867-8.906c-3.211-0.75-5.984-2.75-7.719-5.563c-1.735-2.813-2.281-6.188-1.516-9.406   l20.703-87.219c7.844-33.063,23.461-54.703,57.094-49.969l8.547,1.906c3.469,0.781,6.477,2.906,8.344,5.938   c1.859,3.016,2.43,6.656,1.57,10.094l-33.367,133.5C157.484,271.063,150.453,275.359,143.445,273.719z M414.047,164.078   c-1.516-1.906-3.742-3.141-6.188-3.391l-5.82-0.625c-2.414-0.266-4.836,0.438-6.719,1.953s-3.086,3.703-3.345,6.078L387.781,208   h-51.234l-41.695-63.281c-4.797-7.281-12.516-12.156-21.164-13.328l-33.757-4.609c-15.25-2.094-29.633,7.594-33.422,22.516   l-31.219,122.767c-4.359,17.125,2.461,35.156,17.07,45.094l79.618,54.266l14.758,87.892c2.039,12.094,12.539,20.688,24.43,20.688   c1.367,0,2.75-0.125,4.141-0.344c13.508-2.281,22.617-15.063,20.353-28.563l-16.517-98.344   c-1.125-6.656-4.922-12.594-10.522-16.406l-53.805-38.156l20.656-95.953l28.438,43.203c4.46,6.607,11.913,10.56,19.89,10.56h58.938   L360.04,471.875c-0.406,3.938,2.461,7.469,6.422,7.875l1.922,0.219c3.914,0.406,7.445-2.344,7.953-6.219l39.594-302.922   C416.242,168.422,415.563,165.984,414.047,164.078z M164.813,312.75l-35.984,136.094c-3.5,13.25,4.398,26.813,17.641,30.313   c2.125,0.563,4.258,0.844,6.352,0.844c10.984,0,21.023-7.375,23.961-18.5l29.938-113.25l-24.273-16.531   C175.078,326.688,169.172,320.141,164.813,312.75z M272,16c-26.508,0-48,21.5-48,48c0,26.516,21.492,48,48,48s48-21.484,48-48   C320,37.5,298.508,16,272,16z" fill="#ffffff"/></g></svg>